<svg xmlns="http://www.w3.org/2000/svg" viewBox="0 0 520 520" fill="none">
  <path d="M122 432C205 335 246 228 286 80" stroke="#2f8a60" stroke-width="14" stroke-linecap="round"/>
  <path d="M178 328C93 329 58 267 54 212C130 205 174 249 178 328Z" fill="#2f8a60"/>
  <path d="M210 266C130 242 112 172 127 121C202 143 232 196 210 266Z" fill="#43a86c"/>
  <path d="M252 198C197 144 211 77 247 39C305 89 304 151 252 198Z" fill="#67bf7e"/>
  <path d="M284 258C366 238 415 285 431 338C356 367 301 337 284 258Z" fill="#3e9b5d"/>
  <path d="M246 342C333 352 374 412 371 466C289 464 246 416 246 342Z" fill="#56b36f"/>
  <path d="M120 430C190 392 260 350 360 320" stroke="#78c98a" stroke-width="5" stroke-linecap="round"/>
  <path d="M94 237C120 251 148 279 173 316M151 146C177 168 194 206 207 252M240 70C252 102 254 143 252 190M318 275C350 286 384 305 417 330M276 372C304 397 331 425 357 455" stroke="#d7f0dc" stroke-width="6" stroke-linecap="round"/>
</svg>
