<svg xmlns="http://www.w3.org/2000/svg" viewBox="0 0 520 520" fill="none">
  <path d="M124 426C212 348 300 238 390 82" stroke="#2578c8" stroke-width="13" stroke-linecap="round"/>
  <path d="M207 336C122 352 77 299 66 244C142 226 196 263 207 336Z" fill="#5aa85a"/>
  <path d="M254 282C177 277 142 216 146 164C221 160 263 208 254 282Z" fill="#72ba68"/>
  <path d="M307 213C242 181 238 113 267 69C329 102 345 160 307 213Z" fill="#63ad5f"/>
  <path d="M314 280C394 259 445 302 462 355C387 386 331 354 314 280Z" fill="#4e9e54"/>
  <path d="M250 386C328 404 360 465 350 511C280 501 241 456 250 386Z" fill="#7ac06e"/>
  <circle cx="388" cy="92" r="16" fill="#88ca78"/>
  <path d="M105 260C137 274 171 301 202 329M174 177C202 198 229 232 249 270M278 92C295 125 302 164 306 204M350 296C383 310 417 328 450 348M278 410C304 434 325 464 342 493" stroke="#e0f2e1" stroke-width="6" stroke-linecap="round"/>
</svg>
